# xmcd CD Database Entry
#
# Track frame offsets:
# 182
# 18502
# 30832
# 41477
# 54575
# 72510
# 84547
# 98702
# 117060
#
# Disc length: 1838 seconds
#
# Revision: 1
# Processed by: cddbd v1.4PL0 Copyright (c) Steve Scherf et al.
# Submitted via: tcd 2.0b
#
DISCID=68072c09
DTITLE=Dick Damron/Wings Upon The Wind
DYEAR=1900
DGENRE=
TTITLE0=Wings Upon The Wind
TTITLE1=A Rose By The River
TTITLE2=Closer To Jesus
TTITLE3=Hiding In The Rock
TTITLE4=Jesus It's Me Again
TTITLE5=Does The Light Still Shine
TTITLE6=If You Need Me Lord
TTITLE7=Medly: Old Time Religion, This Train, Will The Circle Be Unbr
TTITLE7=oken
TTITLE8=Wings Upon The Wind (reprise)
EXTD=The Christian Country Collection \nFeaturing: Jesus It's Me A
EXTD=gain
EXTT0=
EXTT1=
EXTT2=
EXTT3=
EXTT4=
EXTT5=
EXTT6=
EXTT7=
EXTT8=
PLAYORDER=
